PathFileType	4	(X/Y/Z)	P:\Projects\LMB_grand_challenge_database\project_only\opensim\experimental_data\SixthCompetition/DM_ngait_og5_new.trc
DataRate	CameraRate	NumFrames	NumMarkers	Units	OrigDataRate	OrigDataStartFrame	OrigNumFrames
120	120	7	68	mm	120	171	342
Frame#	Time	Sternum			Neck			R_Shoulder			L_Shoulder			Xiphoid			Thoracic			R_Asis			L_Asis			R_Psis			L_Psis			Lumbar			R_Elbow			R_ElbowMedial			R_ShoulderAnterior			R_ShoulderPosterior			R_Wrist			R_Radius			R_Ulna			L_Elbow			L_ElbowMedial			L_ShoulderAnterior			L_ShoulderPosterior			L_Wrist			L_Ulna			L_Radius			L_Thigh_Superior			L_Thigh_Inferior			L_Thigh_Lateral			L_Knee_Lateral			L_Knee_Medial			L_Patella			L_Shank_Superior			L_Shank_Inferior			L_Shank_Lateral			L_Ankle_Lateral			L_Ankle_Medial			R_Thigh_Superior			R_Thigh_Inferior			R_Thigh_Lateral			R_Knee_Lateral			R_Knee_Medial			R_Patella			R_Shank_Superior			R_Shank_Inferior			R_Shank_Lateral			R_Ankle_Lateral			RankleMedial			R_Heel			R_Toe			R_Midfoot_Medial			R_Midfoot_Lateral			R_Hindfoot			R_Midfoot_Superior			R_ToeMedial			R_ToeLateral			L_Heel			L_Toe			L_Midfoot_Medial			L_Midfoot_Lateral			L_Hindfoot			L_Midfoot_Superior			L_ToeMedial			L_ToeLateral			Oglobal			Sacral			Xglobal			Yglobal			Zglobal			
		X1	Y1	Z1	X2	Y2	Z2	X3	Y3	Z3	X4	Y4	Z4	X5	Y5	Z5	X6	Y6	Z6	X7	Y7	Z7	X8	Y8	Z8	X9	Y9	Z9	X10	Y10	Z10	X11	Y11	Z11	X12	Y12	Z12	X13	Y13	Z13	X14	Y14	Z14	X15	Y15	Z15	X16	Y16	Z16	X17	Y17	Z17	X18	Y18	Z18	X19	Y19	Z19	X20	Y20	Z20	X21	Y21	Z21	X22	Y22	Z22	X23	Y23	Z23	X24	Y24	Z24	X25	Y25	Z25	X26	Y26	Z26	X27	Y27	Z27	X28	Y28	Z28	X29	Y29	Z29	X30	Y30	Z30	X31	Y31	Z31	X32	Y32	Z32	X33	Y33	Z33	X34	Y34	Z34	X35	Y35	Z35	X36	Y36	Z36	X37	Y37	Z37	X38	Y38	Z38	X39	Y39	Z39	X40	Y40	Z40	X41	Y41	Z41	X42	Y42	Z42	X43	Y43	Z43	X44	Y44	Z44	X45	Y45	Z45	X46	Y46	Z46	X47	Y47	Z47	X48	Y48	Z48	X49	Y49	Z49	X50	Y50	Z50	X51	Y51	Z51	X52	Y52	Z52	X53	Y53	Z53	X54	Y54	Z54	X55	Y55	Z55	X56	Y56	Z56	X57	Y57	Z57	X58	Y58	Z58	X59	Y59	Z59	X60	Y60	Z60	X61	Y61	Z61	X62	Y62	Z62	X63	Y63	Z63	X64	Y64	Z64	X65	Y65	Z65	X66	Y66	Z66	X67	Y67	Z67	X68	Y68	Z68	

172	3.041667	167.584	1450.97	145.531	325.211	1367.2	128.746	279.023	1400.94	306.128	213.948	1401.6	-33.9433	345.074	1202.46	139.004	79.1482	1260.68	154.245	262.437	966.818	288.842	275.511	975.913	11.4905	66.24339999999999	1014.06	173.765	68.6827	1011.68	95.5882	69.0249	1062.55	137.861	244.874	1091.29	417.998	-0	0	0	-0	0	0	-0	0	0	319.541	821.62	399.563	321.935	831.998	357.18	273.231	822.226	409.327	147.619	1070.26	-121.65	-0	0	0	-0	0	0	-0	0	0	180.096	803.117	-136.405	136.44	819.5119999999999	-144.931	187.109	817.4349999999999	-91.3704	245.876	807.982	-16.6362	318.907	598.484	40.8395	345.696	691.984	52.1893	-0	0	0	-0	0	0	374.369	521.902	108.343	307.251	445.209	37.193	277.81	175.862	44.7309	325.801	302.872	113.599	-0	0	0	-0	0	0	189.764	780.2670000000001	309.76	199.208	566.802	288.206	263.543	694.891	309.157	-0	0	0	-0	0	0	273.197	455.13	242.58	87.3758	451.544	296.443	-64.33580000000001	312.732	279.351	81.2503	337.834	227.105	-0	0	0	-0	0	0	-194.137	293.904	208.376	-50.1354	36.7468	256.957	-94.82899999999999	87.5005	189.625	-128.231	101.661	301.143	-184.293	193.689	270.899	-64.7229	187.262	247.143	-69.7285	56.706	206.827	-93.1079	65.6452	294.406	200.728	60.9135	103.665	499.107	59.0159	96.5973	421.515	38.0048	147.209	406.885	35.5171	33.6929	299.768	28.0907	45.1214	363.008	121.396	93.5278	462.895	40.4303	140.867	461.586	39.6355	45.1899	-0	0	0	67.4631	1012.87	134.676	-200	0	0	-0	0	200	-0	200	0	
173	3.05	175.471	1452.59	144.657	332.988	1368.72	128.811	285.702	1402.54	306.086	222.686	1403.08	-34.2532	352.739	1204.04	139.233	86.7848	1262.25	152.881	269.863	968.519	287.9	283.705	977.669	10.6797	73.9014	1015.46	172.298	76.5865	1013.14	94.18940000000001	76.7324	1063.98	136.43	249.712	1092.93	418.171	-0	0	0	-0	0	0	-0	0	0	324.132	823.047	399.958	326.315	833.386	357.568	277.843	823.915	409.992	161.643	1070.97	-123.303	-0	0	0	-0	0	0	-0	0	0	199.356	804.4829999999999	-137.198	155.216	820.299	-146.693	205.059	818.823	-92.14870000000001	252.09	808.7329999999999	-17.5462	322.838	598.924	39.9244	350.038	691.823	50.5831	-0	0	0	-0	0	0	376.966	521.333	107.836	309.798	445.034	36.9346	278.299	176.094	44.6999	327.144	302.921	113.393	-0	0	0	-0	0	0	197.078	782.913	311.096	213.764	568.829	288.815	275.23	698.297	309.522	-0	0	0	-0	0	0	289.78	458.162	243.444	103.655	454.257	296.291	-47.7575	315.125	278.174	98.2704	340.539	226.925	-0	0	0	-0	0	0	-178.024	294.332	205.503	-29.6968	40.8789	260.156	-75.2042	89.2847	191.373	-109.332	105.147	302.441	-166.524	195.493	270.103	-46.8674	190.564	247.016	-49.1603	59.2788	209.406	-73.20189999999999	69.90089999999999	296.996	200.738	60.9529	103.68	499.12	58.8749	96.68989999999999	421.527	37.8098	147.089	406.837	35.4363	33.5783	299.681	28.1104	45.0803	363.097	121.312	93.5104	462.547	40.3861	140.657	461.578	39.5802	45.1575	-0	0	0	75.2439	1014.3	133.244	-200	0	0	-0	0	200	-0	200	0	
174	3.058333	183.269	1454.15	143.827	340.788	1370.13	128.881	292.178	1404.08	305.968	231.427	1404.34	-34.6902	360.557	1205.51	139.489	94.4873	1263.64	151.656	277.261	970.073	287.108	291.849	979.721	10.0798	81.5112	1016.91	171.109	84.36960000000001	1014.65	92.91459999999999	84.37690000000001	1065.44	135.334	254.735	1094.63	418.358	-0	0	0	-0	0	0	-0	0	0	328.645	824.353	400.47	330.806	834.619	357.855	282.507	825.6079999999999	410.69	175.785	1071.81	-124.932	-0	0	0	-0	0	0	-0	0	0	218.838	806.3920000000001	-137.818	174.493	820.681	-147.972	223.854	820.504	-92.9104	257.398	808.898	-18.4865	326.035	599.1559999999999	39.9029	354.752	692.282	50.1141	-0	0	0	-0	0	0	379.575	520.739	107.15	312.537	444.763	36.4452	278.891	176.092	44.3971	328.215	302.677	113.34	-0	0	0	-0	0	0	204.625	785.524	312.241	228.042	571.27	289.492	286.965	701.828	309.868	-0	0	0	-0	0	0	305.802	461.599	244.604	119.787	456.53	296.188	-30.5754	316.395	277.118	115.543	342.591	226.959	-0	0	0	-0	0	0	-161.041	293.436	203.315	-8.281700000000001	43.3473	262.827	-54.6445	90.0009	192.817	-89.2628	107.134	303.544	-147.822	195.914	269.564	-28.1308	192.641	246.81	-27.9399	60.3897	211.842	-52.7141	72.6948	299.2	200.691	60.9157	103.665	499.164	58.8071	96.5701	421.454	37.7461	147.192	406.808	35.2289	33.679	299.622	27.9721	45.1659	363.142	121.224	93.47669999999999	462.544	40.3214	140.6	461.593	39.4829	45.1541	-0	0	0	82.9404	1015.78	132.012	-200	0	0	-0	0	200	-0	200	0	
175	3.066667	191.175	1455.75	143.098	348.491	1371.67	129.17	298.817	1405.51	306.042	240.218	1406.08	-35.3826	368.139	1207.06	139.721	102.032	1265.16	150.423	284.816	971.792	286.048	299.632	981.371	9.250489999999999	89.0489	1018.21	169.903	91.9663	1016.09	91.71599999999999	91.9134	1066.81	134.178	259.491	1096.22	418.72	-0	0	0	-0	0	0	-0	0	0	333.145	825.8440000000001	400.988	335.057	836.144	358.246	287.129	827.301	411.482	189.808	1072.65	-126.187	-0	0	0	-0	0	0	-0	0	0	238.343	808.223	-138.513	193.374	821.752	-149.327	241.291	822.147	-92.6284	263.02	809.58	-20.1463	330.271	599.575	39.4167	359.36	693.228	50.039	-0	0	0	-0	0	0	381.981	520.12	106.547	315.167	444.36	36.1458	279.752	175.921	44.0307	329.049	302.446	113.191	-0	0	0	-0	0	0	212.149	788.109	313.532	242.281	573.5410000000001	290.332	298.238	705.6319999999999	310.28	-0	0	0	-0	0	0	322.847	465.544	245.904	135.485	458.197	296.15	-12.9557	316.661	276.08	132.928	344.628	226.986	-0	0	0	-0	0	0	-143.419	291.497	201.506	13.6268	45.0838	265.108	-33.423	89.842	194.276	-68.6683	107.973	304.646	-128.656	195.198	269.208	-8.78618	193.64	246.866	-6.55997	61.091	213.622	-31.4154	73.985	300.923	200.651	61.0003	103.682	499.068	58.6623	96.5454	421.346	37.8973	147.587	406.838	34.8738	34.0679	299.64	27.4538	45.2458	363.172	121.173	93.4195	462.559	40.2377	140.65	461.483	39.285	45.3322	-0	0	0	90.5076	1017.15	130.81	-200	0	0	-0	0	200	-0	200	0	
176	3.075	198.907	1457.32	142.347	356.38	1373.08	129.509	305.585	1407	306.082	249.078	1407.46	-35.725	375.568	1208.5	139.917	109.774	1266.67	149.095	292.129	973.467	285.04	307.451	982.91	8.55594	96.4875	1019.64	168.586	99.5406	1017.56	90.4332	99.4358	1068.25	132.898	264.515	1097.8	418.827	-0	0	0	-0	0	0	-0	0	0	337.724	827.429	401.321	339.439	837.3920000000001	358.699	291.413	829.03	412.217	203.93	1073.67	-127.546	-0	0	0	-0	0	0	-0	0	0	257.942	810.145	-138.784	213.042	823.0410000000001	-150.63	259.47	824.186	-93.0741	267.526	810.005	-21.4856	334.465	599.749	39.353	364.238	693.859	50.1079	-0	0	0	-0	0	0	384.209	519.427	105.796	317.752	444.001	35.9398	280.302	175.701	43.8721	329.87	302.229	113.006	-0	0	0	-0	0	0	219.795	790.7329999999999	314.647	256.332	576.123	291.568	310.53	709.705	309.977	-0	0	0	-0	0	0	338.82	469.549	247.049	151.442	459.72	296.282	4.57881	316.496	275.919	149.763	345.743	226.783	-0	0	0	-0	0	0	-125.251	288.546	200.201	36.2139	45.7509	266.802	-10.9824	89.20699999999999	195.427	-47.1028	107.66	305.46	-109.147	193.31	268.927	11.2505	193.986	247.113	15.8431	60.9164	215.132	-9.438280000000001	74.19840000000001	302.107	200.619	61.0332	103.719	499.039	58.4887	96.5538	421.31	37.9547	147.658	406.798	34.7397	34.1454	299.66	27.3215	45.2867	363.211	121.172	93.3462	462.553	40.2262	140.628	461.511	39.2086	45.1858	-0	0	0	98.0141	1018.6	129.509	-200	0	0	-0	0	200	-0	200	0	
177	3.083333	206.835	1458.81	141.612	364.316	1374.5	129.871	312.152	1408.53	306.111	258.031	1409.14	-36.1973	383.248	1209.86	140.12	117.391	1268.13	147.729	299.286	974.962	284.378	315.353	984.835	7.88612	103.901	1021	167.443	107.13	1019	89.1687	106.852	1069.64	131.814	269.49	1099.46	418.884	-0	0	0	-0	0	0	-0	0	0	342.479	828.963	401.785	343.81	838.773	359.221	295.997	830.736	412.863	218.22	1074.76	-128.664	-0	0	0	-0	0	0	-0	0	0	277.45	812.47	-138.93	232.773	824.275	-151.274	278.489	826.862	-92.3913	271.323	809.978	-22.4047	338.435	599.832	39.1764	369.167	694.465	50.2054	-0	0	0	-0	0	0	386.518	519.133	105.423	320.23	443.748	35.8034	281.282	175.661	43.6524	331.022	302.133	113.358	-0	0	0	-0	0	0	227.158	793.115	315.852	270.383	578.489	292.374	321.533	713.7140000000001	310.57	-0	0	0	-0	0	0	354.293	473.085	247.571	166.884	460.873	296.704	22.6582	315.437	275.7	168.436	346.856	226.849	-0	0	0	-0	0	0	-106.774	284.672	199.307	59.788	45.8068	268.164	12.2135	88.081	196.152	-25.0607	106.138	305.865	-88.70140000000001	190.177	268.496	31.7466	193.489	247.567	39.3139	60.1902	216.346	13.1868	73.4597	303.072	200.599	61.1236	103.755	499.093	58.4524	96.5581	421.267	38.0057	147.787	406.778	34.5709	34.2772	299.625	27.3096	45.4672	363.277	121.165	93.29179999999999	462.589	40.2776	140.509	461.54	39.1659	45.2094	-0	0	0	105.515	1020	128.306	-200	0	0	-0	0	200	-0	200	0	
178	3.091667	214.782	1460.18	140.898	372.195	1375.88	130.217	318.674	1409.79	306.028	267.129	1410.64	-36.3576	390.852	1211.19	140.504	125.116	1269.47	146.606	306.635	976.581	283.471	323.179	986.287	7.28909	111.321	1022.13	166.219	114.747	1020.24	88.1348	114.312	1070.82	130.631	274.289	1100.99	418.973	-0	0	0	-0	0	0	-0	0	0	346.834	830.408	402.274	347.806	839.804	359.946	300.786	832.524	413.296	232.51	1075.99	-129.929	-0	0	0	-0	0	0	-0	0	0	297.439	815.153	-139.088	252.5	825.596	-151.835	297.261	829.398	-92.1897	275.086	809.97	-23.2673	341.974	599.846	38.928	373.622	694.643	50.4252	-0	0	0	-0	0	0	388.547	518.752	104.999	322.453	443.692	35.6848	282.03	175.58	43.6308	331.783	302.062	113.599	-0	0	0	-0	0	0	235.853	795.006	316.506	283.575	581.346	292.854	332.362	717.352	311.024	-0	0	0	-0	0	0	369.686	477.246	248.287	182.813	461.833	296.84	40.9118	313.581	275.815	187.712	348.044	227.483	-0	0	0	-0	0	0	-87.68680000000001	279.838	198.835	84.3229	45.4513	269.415	36.01	86.1611	196.671	-2.19153	103.555	306.173	-67.4727	185.989	268.272	52.7853	192.108	247.94	64.00069999999999	59.004	217.227	37.0111	71.82729999999999	303.707	200.595	61.1902	103.847	499.113	58.4724	96.5575	421.319	36.457	146.702	406.327	34.1858	33.2291	299.229	27.9901	45.2441	361.856	119.83	93.3643	462.651	40.2631	140.669	461.553	39.1473	45.1884	-0	0	0	113.034	1021.18	127.177	-200	0	0	-0	0	200	-0	200	0	
